<svg viewBox="0 0 200 200" xmlns="http://www.w3.org/2000/svg">
  <!-- Gradient background -->
  <defs>
    <linearGradient id="accessbg" x1="0%" y1="0%" x2="100%" y2="100%">
      <stop offset="0%" stop-color="#1e3a8a" />
      <stop offset="100%" stop-color="#2563eb" />
    </linearGradient>
    <linearGradient id="accessaccent" x1="0%" y1="0%" x2="100%" y2="100%">
      <stop offset="0%" stop-color="#0284c7" />
      <stop offset="100%" stop-color="#0369a1" />
    </linearGradient>
    <linearGradient id="keycardshadow" x1="0%" y1="0%" x2="100%" y2="100%">
      <stop offset="0%" stop-color="rgba(0,0,0,0.2)" />
      <stop offset="100%" stop-color="rgba(0,0,0,0)" />
    </linearGradient>
  </defs>
  
  <!-- Main square with rounded corners -->
  <rect x="10" y="10" width="180" height="180" rx="40" fill="url(#accessbg)" />
  
  <!-- Central icon elements -->
  <g transform="translate(45, 45)">
    <!-- Lock body -->
    <rect x="20" y="40" width="70" height="60" rx="8" fill="white" opacity="0.95"/>
    
    <!-- Lock shackle -->
    <path d="M40 40 v-15 a15 15 0 0 1 30 0 v15" fill="none" stroke="white" stroke-width="14" stroke-linecap="round" opacity="0.95"/>
    
    <!-- Keyhole -->
    <circle cx="55" cy="60" r="8" fill="url(#accessbg)"/>
    <rect x="52" y="60" width="6" height="15" fill="url(#accessbg)"/>
    
    <!-- Key card with subtle shadow -->
    <rect x="80" y="35" width="30" height="20" rx="3" fill="url(#accessaccent)" transform="rotate(15, 80, 35)"/>
    <rect x="80" y="35" width="30" height="20" rx="3" fill="url(#keycardshadow)" transform="rotate(15, 80, 35)"/>
    <line x1="84" y1="40" x2="99" y2="45" stroke="white" stroke-width="1.5" transform="rotate(15, 80, 35)"/>
    <line x1="84" y1="45" x2="105" y2="52" stroke="white" stroke-width="1.5" transform="rotate(15, 80, 35)"/>
    
    <!-- NFC/wireless symbol -->
    <path d="M95 45 Q105 40 110 50" stroke="white" stroke-width="1.5" fill="none" transform="rotate(15, 80, 35)"/>
    <path d="M92 42 Q107 35 115 48" stroke="white" stroke-width="1.5" fill="none" transform="rotate(15, 80, 35)"/>
  </g>
  
  <!-- Subtle accent details -->
  <path d="M40 160 L160 160" stroke="white" stroke-width="1" opacity="0.3"/>
  <circle cx="30" cy="30" r="8" fill="white" opacity="0.1"/>
  <circle cx="170" cy="170" r="8" fill="white" opacity="0.1"/>
</svg>
