<svg viewBox="0 0 200 200" xmlns="http://www.w3.org/2000/svg">
  <!-- Gradient background -->
  <defs>
    <linearGradient id="visitorbg" x1="0%" y1="0%" x2="100%" y2="100%">
      <stop offset="0%" stop-color="#1e40af" />
      <stop offset="100%" stop-color="#3b82f6" />
    </linearGradient>
    <linearGradient id="visitoraccent" x1="0%" y1="0%" x2="100%" y2="100%">
      <stop offset="0%" stop-color="#0ea5e9" />
      <stop offset="100%" stop-color="#0369a1" />
    </linearGradient>
  </defs>
  
  <!-- Main square with rounded corners -->
  <rect x="10" y="10" width="180" height="180" rx="40" fill="url(#visitorbg)" />
  
  <!-- Central icon elements -->
  <g transform="translate(50, 45) scale(1)">
    <!-- Visitor silhouette -->
    <circle cx="50" cy="35" r="20" fill="white" opacity="0.95"/>
    <path d="M25 110 Q50 70 75 110" stroke="white" stroke-width="12" stroke-linecap="round" fill="none" opacity="0.95"/>
    
    <!-- ID card/badge -->
    <rect x="35" y="55" width="30" height="40" rx="3" fill="url(#visitoraccent)" stroke="white" stroke-width="2"/>
    <line x1="42" y1="65" x2="58" y2="65" stroke="white" stroke-width="2"/>
    <line x1="42" y1="75" x2="58" y2="75" stroke="white" stroke-width="2"/>
    <line x1="42" y1="85" x2="52" y2="85" stroke="white" stroke-width="2"/>
    
    <!-- Check/verification symbol -->
    <circle cx="85" cy="30" r="15" fill="#10b981"/>
    <path d="M77 30 L83 36 L93 24" fill="none" stroke="white" stroke-width="3" stroke-linecap="round" stroke-linejoin="round"/>
  </g>
  
  <!-- Subtle accent details -->
  <path d="M40 160 L160 160" stroke="white" stroke-width="1" opacity="0.3"/>
  <circle cx="30" cy="30" r="8" fill="white" opacity="0.1"/>
  <circle cx="170" cy="170" r="8" fill="white" opacity="0.1"/>
</svg>
